# xmcd
# 
# Track frame offsets:
#     150
#     2568
#     18691
#     32739
#     48604
#     62456
#     74838
#     88453
#     105236
#     117068
#     118932
#     131560
#     152220
#     166996
#     169380
#     184835
# 
# Disc length: 2532
# 
# Revision: 2
# Processed by: cddbd v1.5.2PL0 Copyright (c) Steve Scherf et al.
# Submitted via: fre:ac v1.0.31
# 
DISCID=e109e210
DTITLE=Various Artist - Adieu False Heart
DYEAR=2006
DGENRE=Country
TTITLE0=Linda Ronstadt and Ann Savoy - Opening
TTITLE1=Linda Ronstadt and Ann Savoy - Adieu False Heart
TTITLE2=Linda Ronstadt and Ann Savoy - I Can't Get Over You
TTITLE3=Linda Ronstadt and Ann Savoy - Marie Mouri
TTITLE4=Linda Ronstadt and Ann Savoy - King Of Bohemia
TTITLE5=Linda Ronstadt and Ann Savoy - Plus Tu Tournes
TTITLE6=Linda Ronstadt and Ann Savoy - Go Away From My Window
TTITLE7=Linda Ronstadt and Ann Savoy - Burns' Supper
TTITLE8=Linda Ronstadt and Ann Savoy - The One I Love Is Gone
TTITLE9=Linda Ronstadt and Ann Savoy - Interlude
TTITLE10=Linda Ronstadt and Ann Savoy - Rattle My Cage
TTITLE11=Linda Ronstadt and Ann Savoy - Parlez-Moi d'Amour
TTITLE12=Linda Ronstadt and Ann Savoy - Too Old To Die Young
TTITLE13=Linda Ronstadt - Interlude #2
TTITLE14=Linda Ronstadt - Walk Away Renee
TTITLE15=Linda Ronstadt - Closing
EXTD=
EXTT0=
EXTT1=
EXTT2=
EXTT3=
EXTT4=
EXTT5=
EXTT6=
EXTT7=
EXTT8=
EXTT9=
EXTT10=
EXTT11=
EXTT12=
EXTT13=
EXTT14=
EXTT15=
PLAYORDER=
